<svg width="19" height="19" viewBox="0 0 19 19" fill="none" xmlns="http://www.w3.org/2000/svg">
<path d="M13.757 0.999976L6.291 8.46597L6.299 12.713L10.537 12.706L18 5.24298V18C18 18.2652 17.8946 18.5195 17.7071 18.7071C17.5196 18.8946 17.2652 19 17 19H1C0.734784 19 0.48043 18.8946 0.292893 18.7071C0.105357 18.5195 0 18.2652 0 18V1.99998C0 1.73476 0.105357 1.48041 0.292893 1.29287C0.48043 1.10533 0.734784 0.999976 1 0.999976H13.757ZM17.485 0.0999756L18.9 1.51598L9.708 10.708L8.296 10.711L8.294 9.29398L17.485 0.0999756Z" fill="#3A3A3A"/>
</svg>
