<svg width="18" height="15" viewBox="0 0 18 15" fill="none" xmlns="http://www.w3.org/2000/svg">
<path d="M12.6364 14.0909V12.6364C12.6364 11.0297 11.3339 9.72727 9.72727 9.72727H3.90909C2.30244 9.72727 1 11.0297 1 12.6364V14.0909" stroke="#2D3A45" stroke-width="1.4" stroke-linecap="round" stroke-linejoin="round"/>
<path fill-rule="evenodd" clip-rule="evenodd" d="M6.81815 6.81818C8.4248 6.81818 9.72724 5.51574 9.72724 3.90909C9.72724 2.30244 8.4248 1 6.81815 1C5.2115 1 3.90906 2.30244 3.90906 3.90909C3.90906 5.51574 5.2115 6.81818 6.81815 6.81818Z" stroke="#2D3A45" stroke-width="1.4" stroke-linecap="round" stroke-linejoin="round"/>
<path d="M17.0001 14.0909V12.6364C16.9991 11.3106 16.1019 10.1532 14.8182 9.82182" stroke="#2D3A45" stroke-width="1.4" stroke-linecap="round" stroke-linejoin="round"/>
<path d="M11.9091 1.09454C13.1963 1.42412 14.0966 2.58399 14.0966 3.91273C14.0966 5.24146 13.1963 6.40133 11.9091 6.73091" stroke="#2D3A45" stroke-width="1.4" stroke-linecap="round" stroke-linejoin="round"/>
</svg>
